<svg width="60" height="60" viewBox="0 0 60 60" fill="none" xmlns="http://www.w3.org/2000/svg">
<g clip-path="url(#clip0_1987_17688)">
<path d="M25.3129 24.1406C21.9077 24.1406 19.4536 26.9901 19.4536 30.4499C19.4536 34.2526 22.3803 36.7462 26.8106 40.5208C27.5826 41.1785 28.381 41.8588 29.2288 42.6005C29.4497 42.7937 29.725 42.8904 30.0004 42.8904C30.2758 42.8904 30.551 42.7938 30.7719 42.6005C31.6198 41.8588 32.4182 41.1785 33.1902 40.5208C37.6204 36.7462 40.5471 34.2526 40.5471 30.4499C40.5471 26.9898 38.0924 24.1406 34.6878 24.1406C32.36 24.1406 30.8836 25.4697 30.0004 26.7533C29.1173 25.4697 27.6407 24.1406 25.3129 24.1406ZM31.1305 29.7241C31.1394 29.6917 32.0496 26.4843 34.6878 26.4843C36.692 26.4843 38.2034 28.1892 38.2034 30.4499C38.2034 33.1704 35.7442 35.2657 31.6702 38.7369C31.1296 39.1975 30.5762 39.669 30.0004 40.1662C29.4245 39.669 28.8712 39.1974 28.3306 38.7369C24.2565 35.2657 21.7973 33.1704 21.7973 30.4499C21.7973 28.1892 23.3087 26.4843 25.3129 26.4843C27.9175 26.4843 28.8298 29.5816 28.8712 29.7275C29.0119 30.2347 29.4737 30.5859 30.0004 30.5859C30.5282 30.5859 30.9908 30.233 31.1305 29.7241Z" fill="white"/>
<path d="M14.7661 13.1255C15.4133 13.1255 15.938 12.6008 15.938 11.9536C15.938 11.3064 15.4133 10.7817 14.7661 10.7817C14.1189 10.7817 13.5942 11.3064 13.5942 11.9536C13.5942 12.6008 14.1189 13.1255 14.7661 13.1255Z" fill="white"/>
<path d="M52.4743 27.8713C53.296 28.4975 54.2774 28.8283 55.3125 28.8283C57.8972 28.8283 59.9999 26.7255 59.9999 24.1408C59.9999 22.6644 59.3258 21.3046 58.1547 20.4133L52.2657 15.8874V1.17235C52.2657 0.525248 51.741 0.000488281 51.0938 0.000488281H44.0626C43.4154 0.000488281 42.8908 0.525248 42.8908 1.17235V8.68269L32.8385 0.95743C32.0168 0.331305 31.0354 0.000488281 30.0003 0.000488281C28.9652 0.000488281 27.9838 0.331305 27.1581 0.96036L18.2356 7.81751C17.7225 8.21184 17.6261 8.94765 18.0206 9.46069C18.4149 9.97373 19.1507 10.0702 19.6639 9.67573L28.5823 2.82163C28.9924 2.50933 29.4827 2.34421 30.0003 2.34421C30.5179 2.34421 31.0082 2.50933 31.4144 2.8187L56.7309 22.2749C57.319 22.7224 57.6562 23.4026 57.6562 24.1408C57.6562 25.4332 56.6048 26.4846 55.3125 26.4846C54.7949 26.4846 54.3046 26.3194 53.8988 26.0103C52.586 25.0007 31.7737 8.9937 30.7148 8.17926C30.3085 7.86672 29.7462 7.85454 29.3267 8.14926C29.2736 8.18641 6.10804 26.0055 6.10558 26.0075C5.63578 26.3658 5.04845 26.5307 4.44939 26.4725C3.28901 26.3601 2.65949 25.8144 2.40801 24.7025C2.19731 23.771 2.52766 22.8405 3.27401 22.2716L11.3047 16.1C11.8178 15.7057 11.9141 14.9698 11.5197 14.4568C11.1252 13.9438 10.3894 13.8473 9.8764 14.2418L1.84962 20.4104C0.368384 21.5396 -0.293483 23.3824 0.122176 25.2196C0.5976 27.3217 2.05422 28.5952 4.22264 28.8051C5.41149 28.9214 6.58476 28.5896 7.52693 27.871L7.52517 27.8688C7.57498 27.8321 7.64295 27.7809 7.73505 27.7106V43.7884C5.05372 44.4315 2.98023 46.6131 2.48512 49.3756C0.939198 50.4687 0.000771257 52.2445 0.000771257 54.1404C0.000771257 57.3712 2.62926 59.9997 5.86008 59.9997H54.1408C57.3716 59.9997 60.0001 57.3712 60.0001 54.1404C60.0001 52.2445 59.0616 50.4687 57.5157 49.3756C57.0205 46.612 54.9456 44.4296 52.2658 43.7879V27.7109L52.4743 27.8713ZM45.2345 2.34421H49.9219V14.0863L45.2345 10.4838V2.34421ZM18.7504 57.6561H5.85996C3.92147 57.6561 2.34438 56.079 2.34438 54.1405C2.34438 52.8883 3.03519 51.7209 4.14717 51.0936C4.48103 50.9053 4.70157 50.5656 4.73802 50.1839C4.96712 47.7777 6.95917 45.9374 9.37566 45.9374C10.8847 45.9374 12.3126 46.6806 13.195 47.9253C13.4715 48.3153 13.9573 48.4983 14.4225 48.3875C14.7229 48.316 14.9886 48.2812 15.235 48.2812C17.1274 48.2812 18.7273 49.8011 18.7503 51.7554C18.6505 52.4599 19.0271 52.9417 19.5158 53.1119C20.4228 53.4279 21.0943 54.2854 21.0943 55.3122C21.0942 56.6047 20.0428 57.6561 18.7504 57.6561ZM38.9318 51.2525C38.2074 51.6623 37.6095 52.2533 37.1944 52.9687H22.8059C22.3905 52.2531 21.7928 51.6622 21.0688 51.2525C21.0492 51.0415 21.018 50.8321 20.9758 50.6238H39.0249C38.9827 50.832 38.9516 51.0415 38.9318 51.2525ZM22.8088 57.6561C23.2088 56.9662 23.4379 56.1655 23.4379 55.3123H36.5627C36.5627 56.1655 36.7919 56.9662 37.1918 57.6561H22.8088ZM55.2627 50.1839C55.299 50.5656 55.5197 50.9052 55.8535 51.0936C56.9655 51.7209 57.6563 52.8883 57.6563 54.1405C57.6563 56.079 56.0792 57.6561 54.1408 57.6561H41.2503C39.958 57.6561 38.9066 56.6047 38.9066 55.3123C38.9066 54.2844 39.5792 53.4275 40.4851 53.112C40.9779 52.9404 41.3498 52.4559 41.2505 51.7555C41.2735 49.8061 42.8689 48.2813 44.7659 48.2813C45.0122 48.2813 45.278 48.3161 45.5783 48.3876C46.0432 48.4982 46.5293 48.3155 46.8058 47.9254C47.6884 46.6808 49.1162 45.9376 50.6252 45.9376C53.0407 45.9375 55.0334 47.7756 55.2627 50.1839ZM49.9219 43.6306C48.1706 43.8091 46.5404 44.6471 45.3674 45.9726C45.1627 45.9492 44.963 45.9374 44.7657 45.9374C42.9169 45.9374 41.1801 46.821 40.0808 48.2812H19.9199C18.8211 46.8214 17.0839 45.9374 15.2348 45.9374C15.0375 45.9374 14.8378 45.9492 14.6332 45.9726C13.4602 44.647 11.8301 43.8091 10.0787 43.6306V25.9087C11.7797 24.6003 28.0428 12.0916 30.0002 10.5865L49.9219 25.9085V43.6306Z" fill="white"/>
</g>
<defs>
<clipPath id="clip0_1987_17688">
<rect width="60" height="60" fill="white"/>
</clipPath>
</defs>
</svg>
