<svg width="60" height="60" viewBox="0 0 60 60" fill="none" xmlns="http://www.w3.org/2000/svg">
<g clip-path="url(#clip0_1987_17707)">
<path d="M35 22.7246L57.025 27.0996C58.8 27.4746 60 28.9746 60 30.7496V56.2496C60 58.3246 58.325 59.9996 56.25 59.9996H33.75C34.45 59.9996 35 59.4496 35 58.7496V57.4996H56.25C56.925 57.4996 57.5 56.9496 57.5 56.2496V30.7496C57.5 30.1746 57.1 29.6496 56.525 29.5246L35 25.2746V22.7246Z" fill="white"/>
<path d="M48.75 35C49.45 35 50 35.55 50 36.25C50 36.95 49.45 37.5 48.75 37.5H43.75C43.05 37.5 42.5 36.95 42.5 36.25C42.5 35.55 43.05 35 43.75 35H48.75Z" fill="white"/>
<path d="M48.75 42.5C49.45 42.5 50 43.05 50 43.75C50 44.45 49.45 45 48.75 45H43.75C43.05 45 42.5 44.45 42.5 43.75C42.5 43.05 43.05 42.5 43.75 42.5H48.75Z" fill="white"/>
<path d="M48.75 50C49.45 50 50 50.55 50 51.25C50 51.95 49.45 52.5 48.75 52.5H43.75C43.05 52.5 42.5 51.95 42.5 51.25C42.5 50.55 43.05 50 43.75 50H48.75Z" fill="white"/>
<path d="M35 58.7496C35 59.4496 34.45 59.9996 33.75 59.9996C33.05 59.9996 32.5 59.4496 32.5 58.7496V57.4996V23.7496C32.5 23.3746 32.675 23.0246 32.95 22.7746C33.25 22.5496 33.625 22.4496 34 22.5246L35 22.7246V25.2746V57.4996V58.7496Z" fill="white"/>
<path d="M32.5 57.5V58.75C32.5 59.45 33.05 60 33.75 60H23.75C24.45 60 25 59.45 25 58.75V57.5H32.5Z" fill="white"/>
<path d="M26.25 12.5C26.95 12.5 27.5 13.05 27.5 13.75C27.5 14.45 26.95 15 26.25 15H21.25C20.55 15 20 14.45 20 13.75C20 13.05 20.55 12.5 21.25 12.5H26.25Z" fill="white"/>
<path d="M27.5 21.25C27.5 21.95 26.95 22.5 26.25 22.5H21.25C20.55 22.5 20 21.95 20 21.25C20 20.55 20.55 20 21.25 20H26.25C26.95 20 27.5 20.55 27.5 21.25Z" fill="white"/>
<path d="M26.25 27.5C26.95 27.5 27.5 28.05 27.5 28.75C27.5 29.45 26.95 30 26.25 30H21.25C20.55 30 20 29.45 20 28.75C20 28.05 20.55 27.5 21.25 27.5H26.25Z" fill="white"/>
<path d="M26.25 35C26.95 35 27.5 35.55 27.5 36.25C27.5 36.95 26.95 37.5 26.25 37.5H21.25C20.55 37.5 20 36.95 20 36.25C20 35.55 20.55 35 21.25 35H26.25Z" fill="white"/>
<path d="M15 36.25C15 36.95 14.45 37.5 13.75 37.5H8.75C8.05 37.5 7.5 36.95 7.5 36.25C7.5 35.55 8.05 35 8.75 35H13.75C14.45 35 15 35.55 15 36.25Z" fill="white"/>
<path d="M13.75 12.5C14.45 12.5 15 13.05 15 13.75C15 14.45 14.45 15 13.75 15H8.75C8.05 15 7.5 14.45 7.5 13.75C7.5 13.05 8.05 12.5 8.75 12.5H13.75Z" fill="white"/>
<path d="M13.75 20C14.45 20 15 20.55 15 21.25C15 21.95 14.45 22.5 13.75 22.5H8.75C8.05 22.5 7.5 21.95 7.5 21.25C7.5 20.55 8.05 20 8.75 20H13.75Z" fill="white"/>
<path d="M13.75 27.5C14.45 27.5 15 28.05 15 28.75C15 29.45 14.45 30 13.75 30H8.75C8.05 30 7.5 29.45 7.5 28.75C7.5 28.05 8.05 27.5 8.75 27.5H13.75Z" fill="white"/>
<path d="M22.5 46.25C22.5 45.55 21.925 45 21.25 45H13.75C13.05 45 12.5 45.55 12.5 46.25V57.5H10V46.25C10 44.175 11.675 42.5 13.75 42.5H21.25C23.325 42.5 25 44.175 25 46.25V57.5H22.5V46.25Z" fill="white"/>
<path d="M12.5 57.5H22.5H25V58.75C25 59.45 24.45 60 23.75 60H11.25C10.55 60 10 59.45 10 58.75V57.5H12.5Z" fill="white"/>
<path d="M4.375 0.499844L31.85 4.67484C33.675 4.97484 35 6.52484 35 8.37484V22.7248L34 22.5248C33.625 22.4498 33.25 22.5498 32.95 22.7748C32.675 23.0248 32.5 23.3748 32.5 23.7498V8.37484C32.5 7.74984 32.05 7.22484 31.45 7.12484L3.975 2.97484C3.9 2.94984 3.825 2.94984 3.75 2.94984C3.45 2.94984 3.175 3.04984 2.95 3.24984C2.65 3.49984 2.5 3.82484 2.5 4.19984V56.2498C2.5 56.9498 3.075 57.4998 3.75 57.4998H10V58.7498C10 59.4498 10.55 59.9998 11.25 59.9998H3.75C1.675 59.9998 0 58.3248 0 56.2498V4.19984C0 3.09984 0.475 2.04984 1.325 1.34984C2.175 0.624844 3.275 0.324844 4.375 0.499844Z" fill="white"/>
</g>
<defs>
<clipPath id="clip0_1987_17707">
<rect width="60" height="60" fill="white"/>
</clipPath>
</defs>
</svg>
