<svg width="60" height="60" viewBox="0 0 60 60" fill="none" xmlns="http://www.w3.org/2000/svg">
<g clip-path="url(#clip0_1987_17726)">
<path d="M7.5 27.1875H15C15.5175 27.1875 15.9375 26.7684 15.9375 26.25V20.625C15.9375 20.1066 15.5175 19.6875 15 19.6875H7.5C6.9825 19.6875 6.5625 20.1066 6.5625 20.625V26.25C6.5625 26.7684 6.9825 27.1875 7.5 27.1875ZM14.0625 25.3125H12.1875V21.5625H14.0625V25.3125ZM8.4375 21.5625H10.3125V25.3125H8.4375V21.5625Z" fill="white"/>
<path d="M18.75 27.1875H26.25C26.7675 27.1875 27.1875 26.7684 27.1875 26.25V20.625C27.1875 20.1066 26.7675 19.6875 26.25 19.6875H18.75C18.2325 19.6875 17.8125 20.1066 17.8125 20.625V26.25C17.8125 26.7684 18.2325 27.1875 18.75 27.1875ZM25.3125 25.3125H23.4375V21.5625H25.3125V25.3125ZM19.6875 21.5625H21.5625V25.3125H19.6875V21.5625Z" fill="white"/>
<path d="M58.3941 30.0396L30.9375 21.8027V20.6252H37.5C39.5681 20.6252 41.25 18.9434 41.25 16.8752C41.25 15.1305 40.0519 13.6596 38.4356 13.2434C38.4375 13.204 38.4375 13.1646 38.4375 13.1252C38.4375 10.5405 36.3347 8.43773 33.75 8.43773C31.8572 8.43773 30.1791 9.5768 29.4525 11.2812C28.9538 11.3393 28.4747 11.4846 28.0219 11.6965L17.5378 1.21242C17.1713 0.845859 16.5787 0.845859 16.2122 1.21242L3.08719 14.3374C2.91094 14.5127 2.8125 14.7509 2.8125 15.0002V53.4377H1.875C1.3575 53.4377 0.9375 53.8568 0.9375 54.3752V58.1252C0.9375 58.6437 1.3575 59.0627 1.875 59.0627H58.125C58.6425 59.0627 59.0625 58.6437 59.0625 58.1252V54.3752C59.0625 53.8568 58.6425 53.4377 58.125 53.4377H57.1875V36.3227L57.8559 36.5234C57.9441 36.5496 58.035 36.5627 58.125 36.5627C58.3237 36.5627 58.5206 36.4999 58.6847 36.3781C58.9228 36.1999 59.0625 35.9215 59.0625 35.6252V30.9377C59.0625 30.5243 58.7906 30.1587 58.3941 30.0396ZM29.0625 15.9377V29.0627H4.6875V15.9377H29.0625ZM29.0625 34.6877H27.1875V30.9377H29.0625V34.6877ZM10.3125 30.9377V34.6877H8.4375V30.9377H10.3125ZM12.1875 30.9377H14.0625V34.6877H12.1875V30.9377ZM15.9375 30.9377H17.8125V34.6877H15.9375V30.9377ZM19.6875 30.9377H21.5625V34.6877H19.6875V30.9377ZM23.4375 30.9377H25.3125V34.6877H23.4375V30.9377ZM6.5625 30.9377V34.6877H4.6875V30.9377H6.5625ZM29.0625 36.5627V38.4377H4.6875V36.5627H29.0625ZM29.9391 13.1224C29.97 13.1271 30.0581 13.1365 30.0891 13.1374C30.5428 13.1805 30.9272 12.8618 31.0369 12.4324C31.3556 11.1846 32.4713 10.3127 33.75 10.3127C35.3006 10.3127 36.5625 11.5746 36.5625 13.1252C36.5625 13.3371 36.5288 13.563 36.4566 13.8377C36.3806 14.1255 36.4453 14.4321 36.6319 14.6637C36.8175 14.8952 37.1081 15.0377 37.3997 15.0134C37.4541 15.0115 37.5056 15.0049 37.5 15.0002C38.5341 15.0002 39.375 15.8412 39.375 16.8752C39.375 17.9093 38.5341 18.7502 37.5 18.7502H30.9375V15.0002C30.9375 14.7509 30.8391 14.5127 30.6628 14.3374L29.4947 13.1693C29.6438 13.1412 29.7928 13.1234 29.9391 13.1224ZM16.875 3.20086L27.7369 14.0627H6.01312L16.875 3.20086ZM4.6875 40.3127H29.0625V53.4377H23.4375V45.0002C23.4375 44.4818 23.0175 44.0627 22.5 44.0627H11.25C10.7325 44.0627 10.3125 44.4818 10.3125 45.0002V53.4377H4.6875V40.3127ZM12.1875 53.4377V45.9377H15.9375V53.4377H12.1875ZM17.8125 45.9377H21.5625V53.4377H17.8125V45.9377ZM57.1875 57.1877H2.8125V55.3127H57.1875V57.1877ZM51.5625 42.1877H34.6875V40.3127H51.5625V42.1877ZM34.6875 44.0627H51.5625V45.9377H34.6875V44.0627ZM34.6875 47.8127H51.5625V53.4377H34.6875V47.8127ZM55.3125 53.4377H53.4375V39.3752C53.4375 38.8568 53.0175 38.4377 52.5 38.4377H33.75C33.2325 38.4377 32.8125 38.8568 32.8125 39.3752V53.4377H30.9375V28.4477L55.3125 35.7602V53.4377ZM57.1875 34.3652L30.9375 26.4902V23.7602L57.1875 31.6352V34.3652Z" fill="white"/>
<path d="M46.875 13.125H54.375C56.9597 13.125 59.0625 11.0222 59.0625 8.4375C59.0625 6.0375 57.2503 4.05375 54.9225 3.78187C54.1959 2.07656 52.5178 0.9375 50.625 0.9375C48.0403 0.9375 45.9375 3.04031 45.9375 5.625C45.9375 5.66437 45.9375 5.70375 45.9394 5.74312C44.3231 6.15937 43.125 7.63031 43.125 9.375C43.125 11.4431 44.8069 13.125 46.875 13.125ZM46.8169 7.49719C46.8487 7.50188 46.9425 7.51219 46.9744 7.51312C47.2725 7.53656 47.5566 7.39594 47.7422 7.16344C47.9287 6.93187 47.9934 6.62531 47.9175 6.3375C47.8462 6.06281 47.8125 5.83687 47.8125 5.625C47.8125 4.07437 49.0744 2.8125 50.625 2.8125C51.9038 2.8125 53.0194 3.68438 53.3381 4.93219C53.4478 5.36156 53.8462 5.65969 54.2859 5.63719C54.3366 5.63531 54.3862 5.62969 54.375 5.625C55.9256 5.625 57.1875 6.88688 57.1875 8.4375C57.1875 9.98812 55.9256 11.25 54.375 11.25H46.875C45.8409 11.25 45 10.4091 45 9.375C45 8.34094 45.8409 7.5 46.8169 7.49719Z" fill="white"/>
</g>
<defs>
<clipPath id="clip0_1987_17726">
<rect width="60" height="60" fill="white"/>
</clipPath>
</defs>
</svg>
