<svg width="8" height="12" viewBox="0 0 8 12" fill="none" xmlns="http://www.w3.org/2000/svg">
<path d="M0.666421 5.53176L6.00657 0.191706C6.13008 0.068097 6.29496 0 6.47076 0C6.64657 0 6.81144 0.068097 6.93496 0.191706L7.32822 0.584873C7.58412 0.841066 7.58412 1.25745 7.32822 1.51326L2.84396 5.99751L7.3332 10.4867C7.45671 10.6104 7.5249 10.7751 7.5249 10.9508C7.5249 11.1267 7.45671 11.2915 7.3332 11.4152L6.93993 11.8083C6.81632 11.9319 6.65154 12 6.47574 12C6.29994 12 6.13506 11.9319 6.01155 11.8083L0.666421 6.46336C0.542617 6.33936 0.474618 6.1738 0.475008 5.99781C0.474618 5.82112 0.542617 5.65566 0.666421 5.53176Z" fill="white"/>
</svg>
