<svg width="50" height="50" viewBox="0 0 50 50" fill="none" xmlns="http://www.w3.org/2000/svg">
<g clip-path="url(#clip0_1987_17660)">
<path d="M38.2812 49.9967H11.7188C5.25703 49.9967 0 44.7396 0 38.2779V21.8452C0 18.2133 1.72412 14.73 4.61191 12.5273L17.8932 2.39753C22.0776 -0.79397 27.9224 -0.79397 32.1068 2.39753L36.3281 5.61433V3.12166C36.4313 0.530249 40.1321 0.532202 40.2344 3.12166V9.55828C40.2344 10.3008 39.8134 10.979 39.1479 11.3086C38.4825 11.6381 37.6879 11.5617 37.0974 11.1118L29.7385 5.50408C26.9482 3.37595 23.0516 3.37595 20.262 5.50359L6.98076 15.6334C5.05566 17.1016 3.90625 19.4238 3.90625 21.8452V38.2779C3.90625 42.5857 7.41094 46.0904 11.7188 46.0904H38.2812C42.5891 46.0904 46.0938 42.5857 46.0938 38.2779V21.8452C46.0938 19.3941 44.9573 17.064 43.0538 15.6121C42.1961 14.9579 42.0312 13.7323 42.6854 12.8747C43.3396 12.017 44.5652 11.852 45.4228 12.5062C48.2889 14.6922 50 18.1834 50 21.8452V38.2779C50 44.7396 44.743 49.9967 38.2812 49.9967ZM21.0938 22.5552C19.7454 22.5552 18.6523 23.6483 18.6523 24.9967C18.7813 28.2359 23.4073 28.2335 23.5352 24.9967C23.5352 23.6482 22.4421 22.5552 21.0938 22.5552ZM31.3477 24.9966C31.2187 28.2358 26.5927 28.2334 26.4648 24.9966C26.5938 21.7573 31.2198 21.7598 31.3477 24.9966ZM23.5352 32.8091C23.4062 36.0483 18.7802 36.0459 18.6523 32.8091C18.7813 29.5698 23.4073 29.5723 23.5352 32.8091ZM31.3477 32.8091C31.2187 36.0483 26.5927 36.0459 26.4648 32.8091C26.5938 29.5698 31.2198 29.5723 31.3477 32.8091Z" fill="#0061DF"/>
</g>
<defs>
<clipPath id="clip0_1987_17660">
<rect width="50" height="50" fill="white"/>
</clipPath>
</defs>
</svg>
