<svg width="18" height="18" viewBox="0 0 18 18" fill="none" xmlns="http://www.w3.org/2000/svg">
<g clip-path="url(#clip0_1987_18054)">
<path d="M15.0979 6.82043H10.582C10.3879 6.82043 10.2305 6.97783 10.2305 7.17199C10.2305 7.36616 10.3879 7.52355 10.582 7.52355H13.7109V9.03526C13.7109 9.83004 13.0643 10.4767 12.2695 10.4767H5.73048C4.9357 10.4767 4.28908 9.83004 4.28908 9.03526V7.52355H7.41797C7.61214 7.52355 7.76953 7.36616 7.76953 7.17199C7.76953 6.97783 7.61214 6.82043 7.41797 6.82043H2.9021C2.70793 6.82043 2.55054 6.97783 2.55054 7.17199C2.55054 7.36616 2.70793 7.52355 2.9021 7.52355H3.58595V9.03526C3.58595 10.0769 4.33253 10.947 5.31859 11.1397L3.91572 17.5736C3.89304 17.6775 3.91871 17.7862 3.9854 17.869C4.05212 17.9518 4.15281 18 4.25919 18H5.78451C5.94989 18 6.09287 17.8848 6.12802 17.7232L6.92839 14.045H11.0716L11.8719 17.7232C11.9071 17.8848 12.0501 18 12.2154 18H13.7408C13.8471 18 13.9478 17.9519 14.0146 17.869C14.0813 17.7861 14.1069 17.6775 14.0842 17.5736L12.6813 11.1397C13.6674 10.947 14.414 10.0769 14.414 9.03526V7.52355H15.0978C15.292 7.52355 15.4494 7.36616 15.4494 7.17199C15.4495 6.97783 15.2921 6.82043 15.0979 6.82043ZM5.50122 17.2969H4.69566L6.02948 11.1798H6.83227L5.50122 17.2969ZM7.08139 13.3419L7.55185 11.1798H10.4481L10.9186 13.3419H7.08139ZM12.4988 17.2969L11.1677 11.1798H11.9705L13.3043 17.2969H12.4988Z" fill="#696969"/>
<path d="M15.9267 4.49996C15.7325 4.49996 15.5751 4.65735 15.5751 4.85152C15.5751 5.08415 15.3859 5.27339 15.1533 5.27339C14.9206 5.27339 14.7314 5.08415 14.7314 4.85152C14.7314 4.65735 14.574 4.49996 14.3798 4.49996H13.7662C13.6182 4.05134 13.1954 3.72653 12.6978 3.72653C12.4629 3.72653 12.2447 3.79899 12.0641 3.92259C11.939 3.80148 11.769 3.72653 11.5816 3.72653H10.7203C10.5328 3.72653 10.3628 3.80148 10.2378 3.92259C10.0572 3.79899 9.83893 3.72653 9.60405 3.72653C9.37037 3.72653 9.15314 3.79821 8.97307 3.92066C8.84777 3.79793 8.67653 3.72196 8.48771 3.72196H7.62638C7.43759 3.72196 7.26638 3.79793 7.14109 3.92059C6.96105 3.79818 6.74382 3.72653 6.51017 3.72653C6.27649 3.72653 6.05926 3.79821 5.87919 3.92063C5.7539 3.7979 5.58265 3.72192 5.39386 3.72192H4.53254C4.14969 3.72192 3.8382 4.03341 3.8382 4.41625V4.49993H2.07495C1.88078 4.49993 1.72339 4.65732 1.72339 4.85149C1.72339 5.04565 1.88078 5.20305 2.07495 5.20305H3.83817V5.27758C3.83817 5.66042 4.14965 5.97191 4.5325 5.97191H5.39383C5.57991 5.97191 5.74873 5.89794 5.87353 5.77834C6.05473 5.90318 6.274 5.97648 6.51017 5.97648C6.74632 5.97648 6.96559 5.90318 7.14675 5.77841C7.27151 5.89794 7.44033 5.97191 7.62638 5.97191H8.48771C8.67379 5.97191 8.84261 5.89794 8.96741 5.77834C9.14861 5.90318 9.36787 5.97648 9.60405 5.97648C9.83897 5.97648 10.0572 5.90402 10.2378 5.78041C10.3628 5.90152 10.5328 5.97648 10.7203 5.97648H11.5816C11.769 5.97648 11.939 5.90152 12.0641 5.78041C12.2447 5.90402 12.4629 5.97648 12.6978 5.97648C13.1954 5.97648 13.6182 5.65167 13.7662 5.20305H14.0845C14.2325 5.65174 14.6557 5.97648 15.1533 5.97648C15.7736 5.97648 16.2783 5.47181 16.2783 4.85149C16.2783 4.65735 16.1209 4.49996 15.9267 4.49996ZM5.38507 5.26879H4.54133V4.42504H5.38507V5.26879ZM6.51017 5.27339C6.27755 5.27339 6.0883 5.08415 6.0883 4.85152C6.0883 4.61889 6.27755 4.42965 6.51017 4.42965C6.7428 4.42965 6.93205 4.61889 6.93205 4.85152C6.93205 5.08415 6.7428 5.27339 6.51017 5.27339ZM8.47892 5.26879H7.63517V4.42504H8.47892V5.26879ZM9.60405 5.27339C9.37142 5.27339 9.18218 5.08415 9.18218 4.85152C9.18218 4.61889 9.37142 4.42965 9.60405 4.42965C9.83668 4.42965 10.0259 4.61889 10.0259 4.85152C10.0259 5.08415 9.83668 5.27339 9.60405 5.27339ZM11.5728 5.27339H10.729V4.42965H11.5728V5.27339ZM12.6978 5.27339C12.4652 5.27339 12.2759 5.08415 12.2759 4.85152C12.2759 4.61889 12.4652 4.42965 12.6978 4.42965C12.9304 4.42965 13.1197 4.61889 13.1197 4.85152C13.1197 5.08415 12.9304 5.27339 12.6978 5.27339Z" fill="#696969"/>
<path d="M11.7012 2.37109C11.6127 2.54395 11.6812 2.75573 11.854 2.84422C11.9052 2.87045 11.9599 2.88289 12.0138 2.88289C12.1416 2.88289 12.2649 2.813 12.3271 2.69143C12.553 2.24994 12.553 1.72277 12.3271 1.28128C12.2038 1.04036 12.2038 0.752672 12.3271 0.511746C12.4155 0.338883 12.3471 0.127102 12.1743 0.0386136C12.0015 -0.0498395 11.7897 0.0185746 11.7012 0.191403C11.4753 0.632895 11.4753 1.16006 11.7012 1.60155C11.8245 1.84248 11.8245 2.13016 11.7012 2.37109Z" fill="#696969"/>
<path d="M8.6929 2.37109C8.60445 2.54395 8.67286 2.75573 8.84569 2.84422C8.89699 2.87045 8.95165 2.88289 9.00555 2.88289C9.13334 2.88289 9.2566 2.813 9.3188 2.69143C9.54475 2.24994 9.54475 1.72277 9.3188 1.28128C9.1955 1.04036 9.1955 0.752672 9.3188 0.511746C9.40725 0.338883 9.33884 0.127102 9.16601 0.0386136C8.99325 -0.0498395 8.78136 0.0185746 8.6929 0.191403C8.46695 0.632895 8.46695 1.16006 8.6929 1.60155C8.8162 1.84248 8.8162 2.13016 8.6929 2.37109Z" fill="#696969"/>
<path d="M5.68219 2.37109C5.59374 2.54395 5.66215 2.75573 5.83498 2.84422C5.88627 2.87045 5.94094 2.88289 5.99483 2.88289C6.12263 2.88289 6.24588 2.813 6.30808 2.69143C6.53402 2.24994 6.53402 1.72277 6.30808 1.28128C6.18478 1.04036 6.18478 0.752672 6.30808 0.511746C6.39653 0.338883 6.32811 0.127102 6.15529 0.0386136C5.98249 -0.0498395 5.77064 0.0185746 5.68216 0.191403C5.45621 0.632895 5.45621 1.16006 5.68216 1.60155C5.80548 1.84248 5.80548 2.13016 5.68219 2.37109Z" fill="#696969"/>
<path d="M9.24953 7.42055C9.31492 7.35516 9.35254 7.26446 9.35254 7.172C9.35254 7.07954 9.31492 6.98883 9.24953 6.92344C9.18414 6.85805 9.09344 6.82043 9.00098 6.82043C8.90852 6.82043 8.81781 6.85805 8.75242 6.92344C8.68703 6.98883 8.64941 7.07954 8.64941 7.172C8.64941 7.26446 8.68703 7.35516 8.75242 7.42055C8.81781 7.48594 8.90852 7.52356 9.00098 7.52356C9.09344 7.52356 9.18414 7.48591 9.24953 7.42055Z" fill="#696969"/>
</g>
<defs>
<clipPath id="clip0_1987_18054">
<rect width="18" height="18" fill="white"/>
</clipPath>
</defs>
</svg>
