<svg width="14" height="15" viewBox="0 0 14 15" fill="none" xmlns="http://www.w3.org/2000/svg">
<path d="M3.0625 4.81987C3.77114 4.81987 4.34766 4.23924 4.34766 3.52554C4.34766 2.81183 3.77114 2.2312 3.0625 2.2312C2.35386 2.2312 1.77734 2.81183 1.77734 3.52554C1.77734 4.23924 2.35386 4.81987 3.0625 4.81987ZM3.0625 3.05737C3.31882 3.05737 3.52734 3.26739 3.52734 3.52554C3.52734 3.78369 3.31882 3.9937 3.0625 3.9937C2.80618 3.9937 2.59766 3.78369 2.59766 3.52554C2.59766 3.26739 2.80618 3.05737 3.0625 3.05737Z" fill="#696969"/>
<path d="M11.1971 1.57222L9.01904 1.35287C2.69946 0.409929 3.10945 0.468615 3.0625 0.468615C1.37383 0.468615 0 1.83989 0 3.52545C0 4.12624 0.174645 4.68705 0.475781 5.16011C0.483191 5.19236 0.841313 6.45255 2.23062 11.3499C2.28093 11.5272 2.44188 11.6495 2.625 11.6495H2.87109V13.2192C2.87109 13.4473 3.05473 13.6323 3.28125 13.6323C3.50777 13.6323 3.69141 13.4473 3.69141 13.2192V11.6495H4.15625C4.38277 11.6495 4.56641 11.4645 4.56641 11.2364V6.36241L9.01901 5.69803L11.197 5.47869C11.4067 5.45756 11.5664 5.27985 11.5664 5.06764V1.98326C11.5664 1.77105 11.4067 1.59334 11.1971 1.57222ZM3.03352 1.29498L8.55859 2.11933V4.93154L3.03352 5.75592C1.81043 5.74047 0.820312 4.74582 0.820312 3.52545C0.820312 2.30508 1.81043 1.31043 3.03352 1.29498ZM3.74609 10.8233H2.93437L1.6304 6.22676C2.05803 6.45354 2.54546 6.58229 3.0625 6.58229C3.10557 6.58229 3.07308 6.58521 3.74609 6.4848V10.8233ZM10.7461 4.6938L9.37891 4.83149V2.21941L10.7461 2.35711V4.6938Z" fill="#696969"/>
<path d="M12.9062 3.05737H13.5898C13.8164 3.05737 14 2.87242 14 2.64429C14 2.41615 13.8164 2.2312 13.5898 2.2312H12.9062C12.6797 2.2312 12.4961 2.41615 12.4961 2.64429C12.4961 2.87242 12.6797 3.05737 12.9062 3.05737Z" fill="#696969"/>
<path d="M13.5898 3.99371H12.9062C12.6797 3.99371 12.4961 4.17867 12.4961 4.4068C12.4961 4.63493 12.6797 4.81989 12.9062 4.81989H13.5898C13.8164 4.81989 14 4.63493 14 4.4068C14 4.17867 13.8164 3.99371 13.5898 3.99371Z" fill="#696969"/>
</svg>
