<svg width="16" height="16" viewBox="0 0 16 16" fill="none" xmlns="http://www.w3.org/2000/svg">
<g clip-path="url(#clip0_1987_18070)">
<path d="M15.0625 6.4375H14.75V5.03125C14.75 4.34192 14.1891 3.78125 13.5 3.78125C13.259 3.78125 13.0337 3.84973 12.8428 3.96838C12.715 3.41406 12.2172 3 11.625 3H11.6246C10.9357 3 10.3746 3.56067 10.3746 4.25V6.4375H5.62537V4.25C5.62537 3.56067 5.06433 3 4.375 3C3.78284 3 3.28503 3.41406 3.15723 3.96838C2.96631 3.84973 2.74097 3.78125 2.5 3.78125C1.81091 3.78125 1.25 4.34192 1.25 5.03125V6.4375H0.9375C0.420654 6.4375 0 6.85815 0 7.375V8.625C0 9.14185 0.420654 9.5625 0.9375 9.5625H1.25V10.9688C1.25 11.6581 1.81091 12.2188 2.5 12.2188C2.74097 12.2188 2.96631 12.1503 3.15723 12.0316C3.28503 12.5859 3.78284 13 4.375 13H4.37537C5.06433 13 5.62537 12.4393 5.62537 11.75V9.5625H10.3746V11.75C10.3746 12.4393 10.9357 13 11.625 13C12.2172 13 12.715 12.5859 12.8428 12.0316C13.0337 12.1503 13.259 12.2188 13.5 12.2188C14.1891 12.2188 14.75 11.6581 14.75 10.9688V9.5625H15.0625C15.5793 9.5625 16 9.14185 16 8.625V7.375C16 6.85815 15.5793 6.4375 15.0625 6.4375ZM1.25 8.9375H0.9375C0.765259 8.9375 0.625 8.79724 0.625 8.625V7.375C0.625 7.20276 0.765259 7.0625 0.9375 7.0625H1.25V8.9375ZM3.125 10.9688C3.125 11.1412 3.05505 11.2975 2.94189 11.4106C2.82874 11.5238 2.67249 11.5938 2.5 11.5938C2.15527 11.5938 1.875 11.3135 1.875 10.9688V5.03125C1.875 4.68652 2.15527 4.40625 2.5 4.40625C2.84473 4.40625 3.125 4.68652 3.125 5.03125V10.9688ZM5.00037 11.75C5.00037 12.0947 4.71973 12.375 4.37537 12.375H4.375C4.03064 12.375 3.75 12.0947 3.75 11.75V4.25C3.75 3.90527 4.03064 3.625 4.37537 3.625C4.71973 3.625 5.00037 3.90527 5.00037 4.25V11.75ZM10.3728 7.6875H8.1875C8.01501 7.6875 7.875 7.82751 7.875 8C7.875 8.17249 8.01501 8.3125 8.1875 8.3125H10.3728V8.9375H5.62378V7.0625H10.3728V7.6875ZM12.25 11.75C12.25 12.0947 11.9694 12.375 11.6246 12.375C11.2803 12.375 10.9996 12.0947 10.9996 11.75V8.01599C10.9994 8.02283 10.9988 8.02966 10.9978 8.03625V7.96375C10.9988 7.97034 10.9994 7.97717 10.9996 7.98401V4.25C10.9996 3.90527 11.2803 3.625 11.6246 3.625H11.625C11.9694 3.625 12.25 3.90527 12.25 4.25V11.75ZM14.125 10.9688C14.125 11.3135 13.8447 11.5938 13.5 11.5938C13.1553 11.5938 12.875 11.3135 12.875 10.9688V5.03125C12.875 4.68652 13.1553 4.40625 13.5 4.40625C13.8447 4.40625 14.125 4.68652 14.125 5.03125V10.9688ZM15.375 8.625C15.375 8.79724 15.2347 8.9375 15.0625 8.9375H14.75V7.0625H15.0625C15.2347 7.0625 15.375 7.20276 15.375 7.375V8.625Z" fill="#696969"/>
<path d="M6.93835 8.3125C6.76575 8.3125 6.62573 8.17261 6.62573 8C6.62573 7.82739 6.7655 7.6875 6.93811 7.6875H6.93835C7.11096 7.6875 7.25085 7.82739 7.25085 8C7.25085 8.17261 7.11096 8.3125 6.93835 8.3125Z" fill="#696969"/>
</g>
<defs>
<clipPath id="clip0_1987_18070">
<rect width="16" height="16" fill="white"/>
</clipPath>
</defs>
</svg>
