<svg width="16" height="16" viewBox="0 0 16 16" fill="none" xmlns="http://www.w3.org/2000/svg">
<g clip-path="url(#clip0_1987_18179)">
<path d="M0.124051 5.43742C1.17786 6.22786 2.13829 7.13829 2.94882 8.11075C2.1667 7.83932 1.3007 7.68744 0.472487 7.68744H0.31155C0.173832 7.68744 0.052364 7.7776 0.0124579 7.90938C-0.0274482 8.04119 0.0236141 8.18357 0.138207 8.25994C0.297176 8.40063 2.27739 9.41297 2.84701 11.4872C1.95639 11.6783 1.27511 12.406 1.1463 13.3124H0.311582C0.138989 13.3124 -0.000917051 13.4523 -0.000917051 13.6249C-0.000917051 13.7975 0.138989 13.9374 0.311582 13.9374H3.93657C4.10916 13.9374 4.24907 13.7975 4.24907 13.6249C4.24907 13.4523 4.10916 13.3124 3.93657 13.3124H1.78026C1.91951 12.622 2.51148 12.096 3.24185 12.064C3.66557 12.045 4.07604 12.1969 4.38544 12.4899C4.5335 12.6301 4.7745 12.5931 4.87356 12.4147C5.30687 11.6339 6.13156 11.1249 7.06156 11.1249C7.85021 11.1249 8.55308 11.487 9.01502 12.0652C8.76414 12.3706 8.62405 12.7552 8.62405 13.1561C8.62405 13.2085 8.62655 13.2606 8.63124 13.3124H6.74909C6.57649 13.3124 6.43659 13.4523 6.43659 13.6249C6.43659 13.7975 6.57649 13.9374 6.74909 13.9374H15.6865C15.8591 13.9374 15.999 13.7975 15.999 13.6249C15.999 13.4523 15.8591 13.3124 15.6865 13.3124H14.8518C14.723 12.4059 14.0416 11.6782 13.1511 11.4871C13.7205 9.41381 15.6972 8.40385 15.8599 8.25991C15.9745 8.18354 16.0255 8.04116 15.9856 7.90935C15.9457 7.77757 15.8242 7.68741 15.6865 7.68741H15.5256C14.7835 7.68741 13.9953 7.80901 13.2863 8.02469C14.4137 6.39501 15.694 5.59264 15.874 5.43745C15.9907 5.34989 16.0314 5.19317 15.9718 5.05989C15.9123 4.92661 15.7684 4.85236 15.6252 4.88095C13.7807 5.2498 12.0902 6.17067 10.8076 7.43673C10.9888 6.04973 11.3979 4.71308 12.0285 3.45218C12.0887 3.33187 12.0651 3.18656 11.97 3.09146C11.8748 2.99637 11.7296 2.97274 11.6093 3.0329C9.94967 3.86268 8.63342 5.3357 8.02968 7.20351C7.06306 5.09361 5.47134 3.30618 3.47232 2.10693C3.34932 2.03312 3.19195 2.05253 3.09057 2.15393C2.98917 2.25534 2.96982 2.41271 3.04357 2.53565C4.10385 4.39099 4.79856 5.20099 5.33031 6.8541C3.96888 5.56958 2.10354 4.87486 0.31155 4.87486C0.177051 4.87486 0.0576452 4.96092 0.0150829 5.08852C-0.0274169 5.2162 0.0164579 5.3567 0.124051 5.43742ZM4.5225 11.8027C4.21275 11.5963 3.85563 11.4728 3.48132 11.444C3.20482 10.3148 2.45307 9.20969 1.40226 8.37829C2.24632 8.49594 3.07523 8.76678 3.74144 9.15119C4.22669 9.8514 4.63591 10.5771 4.96028 11.3121C4.797 11.4604 4.65056 11.6242 4.5225 11.8027ZM14.2178 13.3124H9.26027C9.25295 13.261 9.24905 13.2088 9.24905 13.1561C9.24905 12.8391 9.38648 12.538 9.62611 12.3299C9.82479 12.1574 10.0793 12.0624 10.3428 12.0624C10.6646 12.0624 10.9687 12.2032 11.177 12.4487C11.1771 12.4488 11.1772 12.4489 11.1773 12.449C11.2917 12.5834 11.4967 12.5963 11.627 12.4763C11.627 12.4763 11.6271 12.4762 11.6272 12.4762C11.9336 12.1935 12.3378 12.0455 12.7566 12.064C13.4867 12.096 14.0786 12.622 14.2178 13.3124ZM12.5168 11.444C12.2693 11.4631 12.029 11.5238 11.8049 11.6225C11.9561 10.6869 12.2741 9.77081 12.7531 8.89013C13.2934 8.64382 13.9407 8.46553 14.598 8.37657C13.5461 9.20816 12.7935 10.314 12.5168 11.444ZM14.2844 5.9237C12.661 7.43366 11.4915 9.44644 11.169 11.6491C10.9187 11.5119 10.6355 11.4374 10.3428 11.4374C10.0428 11.4374 9.7503 11.5162 9.49302 11.6626C9.38773 11.5322 9.27233 11.4104 9.14711 11.2982C9.3157 10.9286 9.59167 9.82087 10.6507 8.53344C11.596 7.38391 12.8736 6.47442 14.2844 5.9237ZM11.0516 4.09371C10.5149 5.40692 10.1974 6.78888 10.1043 8.21522C9.62145 8.81591 9.22636 9.46622 8.92692 10.1538C8.8178 9.48284 8.64874 8.82156 8.42389 8.18135C8.7358 6.52629 9.69095 5.05692 11.0516 4.09371ZM4.32563 3.45771C5.905 4.71467 7.1194 6.39779 7.80718 8.31041C8.07886 9.06553 8.26727 9.85287 8.36708 10.6506L8.38486 10.7928C7.97452 10.6003 7.52649 10.4999 7.06156 10.4999C6.84996 10.4999 6.64106 10.5214 6.43656 10.5629V9.91862C6.43656 6.33348 4.65766 4.09699 4.32563 3.45771ZM5.65819 8.17732C5.75962 8.75007 5.81156 9.33547 5.81156 9.91865V10.7605C5.6959 10.8111 5.58359 10.8684 5.47512 10.9324C4.53744 8.86956 3.04654 7.04929 1.3013 5.57605C3.05226 5.84448 4.68872 6.80535 5.65819 8.17732Z" fill="#696969"/>
<path d="M5.34229 13.9373C5.51487 13.9373 5.65479 13.7974 5.65479 13.6248C5.65479 13.4522 5.51487 13.3123 5.34229 13.3123C5.1697 13.3123 5.02979 13.4522 5.02979 13.6248C5.02979 13.7974 5.1697 13.9373 5.34229 13.9373Z" fill="#696969"/>
</g>
<defs>
<clipPath id="clip0_1987_18179">
<rect width="16" height="16" fill="white"/>
</clipPath>
</defs>
</svg>
