<svg width="16" height="16" viewBox="0 0 16 16" fill="none" xmlns="http://www.w3.org/2000/svg">
<g clip-path="url(#clip0_1987_18165)">
<path d="M13.8691 0H2.15395C1.38891 0 0.766602 0.621094 0.766602 1.38464V14.6154C0.766602 15.3789 1.38891 16 2.15395 16H13.8691C14.6341 16 15.2564 15.3789 15.2564 14.6154V1.38464C15.2564 0.621094 14.6341 0 13.8691 0V0ZM1.6915 1.38464C1.6915 1.13013 1.89894 0.923096 2.15395 0.923096H13.8691C14.1241 0.923096 14.3315 1.13013 14.3315 1.38464V3.23071H1.6915V1.38464ZM14.3315 14.6154C14.3315 14.8699 14.1241 15.0769 13.8691 15.0769H2.15395C1.89894 15.0769 1.6915 14.8699 1.6915 14.6154V4.15381H14.3315V14.6154Z" fill="#696969"/>
<path d="M11.0951 1.61542H10.1705C9.91508 1.61542 9.70801 1.82208 9.70801 2.07697C9.70801 2.33185 9.91508 2.53851 10.1705 2.53851H11.0951C11.3505 2.53851 11.5576 2.33185 11.5576 2.07697C11.5576 1.82208 11.3505 1.61542 11.0951 1.61542Z" fill="#696969"/>
<path d="M13.5612 1.61542H12.6365C12.3811 1.61542 12.1741 1.82208 12.1741 2.07697C12.1741 2.33185 12.3811 2.53851 12.6365 2.53851H13.5612C13.8166 2.53851 14.0235 2.33185 14.0235 2.07697C14.0235 1.82208 13.8166 1.61542 13.5612 1.61542Z" fill="#696969"/>
<path d="M3.54248 9.61548C3.54248 12.0756 5.54774 14.077 8.01264 14.077C10.4777 14.077 12.4829 12.0756 12.4829 9.61548C12.4829 9.49573 12.478 9.37708 12.4687 9.25977C12.4687 9.25916 12.4686 9.25854 12.4686 9.25806C12.2855 6.96448 10.3571 5.15393 8.01264 5.15393C5.66834 5.15393 3.73989 6.96448 3.55679 9.25806C3.55667 9.25854 3.55667 9.25916 3.55667 9.25977C3.54737 9.37708 3.54248 9.49573 3.54248 9.61548ZM8.01264 13.1539C6.13715 13.1539 4.5974 11.6929 4.47533 9.85144C4.57514 9.89246 4.66357 9.94666 4.76447 10.0085C5.03722 10.1761 5.37687 10.3848 6.00872 10.3848C6.64057 10.3848 6.9801 10.1763 7.25297 10.0087C7.47912 9.86975 7.64241 9.76941 8.01251 9.76941C8.38262 9.76941 8.54603 9.86975 8.77218 10.0087C9.04505 10.1761 9.3847 10.3848 10.0166 10.3848C10.6484 10.3848 10.9881 10.1763 11.2609 10.0087C11.3618 9.94666 11.4503 9.89246 11.5499 9.85144C11.428 11.6929 9.88825 13.1539 8.01264 13.1539ZM8.01264 6.07703C9.72374 6.07703 11.1556 7.29309 11.4862 8.90479C11.1737 8.97876 10.9596 9.10986 10.7762 9.22241C10.5501 9.36133 10.3867 9.46167 10.0166 9.46167C9.64644 9.46167 9.48304 9.36133 9.25689 9.22241C8.98402 9.05481 8.64449 8.84619 8.01251 8.84619C7.38067 8.84619 7.04114 9.05481 6.76826 9.22241C6.54211 9.36133 6.37871 9.46167 6.00872 9.46167C5.63862 9.46167 5.47521 9.36133 5.24906 9.22241C5.06572 9.10974 4.85168 8.97864 4.53918 8.90479C4.86978 7.29309 6.30165 6.07703 8.01264 6.07703Z" fill="#696969"/>
</g>
<defs>
<clipPath id="clip0_1987_18165">
<rect width="16" height="16" fill="white"/>
</clipPath>
</defs>
</svg>
