<svg width="16" height="16" viewBox="0 0 16 16" fill="none" xmlns="http://www.w3.org/2000/svg">
<path d="M14.5938 1.8927H1.40625C0.630844 1.8927 0 2.51907 0 3.28898V11.6046C0 12.3745 0.630844 13.0009 1.40625 13.0009H2.03125V13.5283C2.03125 13.7854 2.24113 13.9938 2.5 13.9938C2.75887 13.9938 2.96875 13.7854 2.96875 13.5283V13.0009H13.0312V13.5283C13.0312 13.7854 13.2411 13.9938 13.5 13.9938C13.7589 13.9938 13.9688 13.7854 13.9688 13.5283V13.0009H14.5938C15.3692 13.0009 16 12.3745 16 11.6046V3.28898C16 2.51907 15.3692 1.8927 14.5938 1.8927ZM11.0312 12.07H1.40625C1.14778 12.07 0.9375 11.8612 0.9375 11.6046V3.28898C0.9375 3.03234 1.14778 2.82355 1.40625 2.82355H11.0312V12.07ZM15.0625 11.6046C15.0625 11.8612 14.8522 12.07 14.5938 12.07H11.9688V5.05759H15.0625V11.6046ZM15.0625 4.12674H11.9688V2.82355H14.5938C14.8522 2.82355 15.0625 3.03234 15.0625 3.28898V4.12674Z" fill="#696969"/>
<path d="M13.0408 10.6406C13.0935 10.8928 13.3327 11.0543 13.592 11.0061C13.8467 10.9534 14.0085 10.7151 13.9601 10.4588C13.9012 10.1795 13.6212 10.0269 13.3645 10.1044C13.1234 10.1808 12.9971 10.409 13.0408 10.6406Z" fill="#696969"/>
<path d="M13.0408 8.6548C13.0935 8.907 13.3327 9.06856 13.592 9.02031C13.8467 8.96763 14.0085 8.7293 13.9601 8.47297C13.9012 8.19362 13.6212 8.04111 13.3645 8.11862C13.1234 8.19502 12.9971 8.4232 13.0408 8.6548Z" fill="#696969"/>
<path d="M13.0408 6.66895C13.0935 6.92115 13.3327 7.08272 13.592 7.03447C13.8467 6.98178 14.0085 6.74345 13.9601 6.48713C13.9012 6.20778 13.6212 6.05527 13.3645 6.13278C13.1234 6.20918 12.9971 6.43736 13.0408 6.66895Z" fill="#696969"/>
<path d="M3.4375 11.0151H8.5625C9.33791 11.0151 9.96875 10.3887 9.96875 9.61879V5.27482C9.96875 4.50491 9.33791 3.87854 8.5625 3.87854H3.4375C2.66209 3.87854 2.03125 4.50491 2.03125 5.27482V9.61879C2.03125 10.3887 2.66209 11.0151 3.4375 11.0151ZM2.96875 5.27482C2.96875 5.01818 3.17903 4.80939 3.4375 4.80939H8.5625C8.82097 4.80939 9.03125 5.01818 9.03125 5.27482V9.61879C9.03125 9.87542 8.82097 10.0842 8.5625 10.0842H3.4375C3.17903 10.0842 2.96875 9.87542 2.96875 9.61879V5.27482Z" fill="#696969"/>
</svg>
