<svg width="16" height="16" viewBox="0 0 16 16" fill="none" xmlns="http://www.w3.org/2000/svg">
<g clip-path="url(#clip0_1987_18177)">
<path d="M15.4048 14.7501H8.6554V8.62568H15.4048C15.75 8.62568 16.0298 8.3459 16.0298 8.00068C16.0298 3.45551 12.24 -0.0940472 7.99634 0.00190003C3.59326 0.0202106 0.03125 3.5882 0.03125 8.00068C0.03125 8.3459 0.311035 8.62568 0.656128 8.62568H7.40552V14.7501H0.656128C0.311035 14.7501 0.03125 15.0299 0.03125 15.375C0.03125 15.7202 0.311035 16 0.656128 16H15.4048C15.75 16 16.0298 15.7202 16.0298 15.375C16.0298 15.0299 15.75 14.7501 15.4048 14.7501ZM8.03052 1.25129C8.22681 1.25129 8.71887 1.61347 9.17578 2.98383C9.57044 4.16792 9.80713 5.70905 9.85462 7.3758H6.2063C6.25379 5.70905 6.4906 4.16792 6.88526 2.98383C7.34204 1.61347 7.83411 1.25129 8.03052 1.25129ZM14.7515 7.3758H11.105C11.0555 5.55683 10.7521 3.13423 9.91992 1.5185C12.4878 2.26289 14.4926 4.53632 14.7515 7.3758ZM6.14111 1.51838C5.30994 3.13227 5.00549 5.55256 4.95606 7.3758H1.30945C1.56836 4.53779 3.57166 2.26338 6.14111 1.51838ZM1.90613 12.3128C1.56091 12.3128 1.28113 12.033 1.28113 11.6878V10.4588C1.28113 10.1136 1.56091 9.83381 1.90613 9.83381C2.25122 9.83381 2.53101 10.1136 2.53101 10.4588V11.6878C2.53101 12.033 2.25122 12.3128 1.90613 12.3128ZM4.94739 12.3128C4.6023 12.3128 4.32251 12.033 4.32251 11.6878V10.4588C4.32251 10.1136 4.6023 9.83381 4.94739 9.83381C5.2926 9.83381 5.57239 10.1136 5.57239 10.4588V11.6878C5.57239 12.033 5.2926 12.3128 4.94739 12.3128ZM11.1135 9.83381C11.4587 9.83381 11.7385 10.1136 11.7385 10.4588V11.6878C11.7385 12.033 11.4587 12.3128 11.1135 12.3128C10.7684 12.3128 10.4887 12.033 10.4887 11.6878V10.4588C10.4887 10.1136 10.7684 9.83381 11.1135 9.83381ZM14.1549 9.83381C14.5001 9.83381 14.7799 10.1136 14.7799 10.4588V11.6878C14.7799 12.033 14.5001 12.3128 14.1549 12.3128C13.8098 12.3128 13.53 12.033 13.53 11.6878V10.4588C13.53 10.1136 13.8098 9.83381 14.1549 9.83381Z" fill="#696969"/>
</g>
<defs>
<clipPath id="clip0_1987_18177">
<rect width="16" height="16" fill="white"/>
</clipPath>
</defs>
</svg>
