<svg width="16" height="16" viewBox="0 0 16 16" fill="none" xmlns="http://www.w3.org/2000/svg">
<g clip-path="url(#clip0_1987_18088)">
<path d="M2.24949 2.49982C1.97338 2.49982 1.74951 2.72365 1.74951 2.99979V4.49972C1.74951 4.77586 1.97338 4.99969 2.24949 4.99969C2.5256 4.99969 2.74946 4.77586 2.74946 4.49972V2.99979C2.74946 2.72365 2.5256 2.49982 2.24949 2.49982Z" fill="#696969"/>
<path d="M2.24949 8.49951C1.97338 8.49951 1.74951 8.72334 1.74951 8.99949V10.4994C1.74951 10.7756 1.97338 10.9994 2.24949 10.9994C2.5256 10.9994 2.74946 10.7756 2.74946 10.4994V8.99949C2.74946 8.72334 2.5256 8.49951 2.24949 8.49951Z" fill="#696969"/>
<path d="M11.4592 13.7044C11.8044 13.7044 12.0842 13.4246 12.0842 13.0794C12.0842 12.7343 11.8044 12.4545 11.4592 12.4545C11.114 12.4545 10.8342 12.7343 10.8342 13.0794C10.8342 13.4246 11.114 13.7044 11.4592 13.7044Z" fill="#696969"/>
<path d="M9.95724 11.5767C9.76197 11.772 9.76197 12.0885 9.95724 12.2838C10.1525 12.4791 10.4691 12.479 10.6643 12.2838C11.1029 11.8452 11.8166 11.8452 12.2552 12.2838C12.3529 12.3815 12.4808 12.4303 12.6088 12.4303C13.0502 12.4303 13.2782 11.8926 12.9623 11.5767C12.1338 10.7483 10.7858 10.7483 9.95724 11.5767Z" fill="#696969"/>
<path d="M14.0229 10.516C12.6065 9.09953 10.3134 9.09925 8.89667 10.516C8.70143 10.7113 8.70143 11.0279 8.89667 11.2231C9.09191 11.4183 9.40846 11.4183 9.60373 11.2231C10.6295 10.1973 12.2899 10.1972 13.3158 11.2231C13.511 11.4183 13.8276 11.4184 14.0229 11.2231C14.2182 11.0279 14.2182 10.7113 14.0229 10.516Z" fill="#696969"/>
<path d="M9.50001 7.469C9.50001 7.24719 9.50001 1.47139 9.50001 1.24994C9.50001 0.560722 8.93928 0 8.25007 0H1.25042C0.56121 0 0.000488281 0.560722 0.000488281 1.24994V15.4992C0.000488281 15.7754 0.224352 15.9992 0.500463 15.9992H9.00003C9.26614 15.9992 9.48307 15.7911 9.49851 15.5289C12.5311 17.0143 15.9997 14.8003 15.9997 11.4994C15.9997 8.15646 12.4688 5.99001 9.50001 7.469ZM1.00044 1.24994C1.00044 1.1121 1.11259 0.999949 1.25042 0.999949H8.25007C8.38791 0.999949 8.50006 1.1121 8.50006 1.24994V6.49967H1.00044V1.24994ZM8.50006 14.9992H1.00044V7.49962H8.50006V8.14802C6.50053 9.9404 6.49978 13.0577 8.50006 14.8508V14.9992ZM11.4999 14.9992C9.57 14.9992 8.00008 13.4293 8.00008 11.4994C8.00008 9.56951 9.57 7.99959 11.4999 7.99959C13.4298 7.99959 14.9997 9.56951 14.9997 11.4994C14.9997 13.4293 13.4298 14.9992 11.4999 14.9992Z" fill="#696969"/>
</g>
<defs>
<clipPath id="clip0_1987_18088">
<rect width="16" height="16" fill="white"/>
</clipPath>
</defs>
</svg>
