<svg width="16" height="16" viewBox="0 0 16 16" fill="none" xmlns="http://www.w3.org/2000/svg">
<g clip-path="url(#clip0_1987_18111)">
<path d="M0.596736 11.4323C6.67727 9.70383 8.89977 13.1968 15.6492 11.435C15.8997 11.3696 16.0498 11.1135 15.9844 10.863C15.919 10.6126 15.6629 10.4625 15.4125 10.5279C14.0874 10.8738 12.9388 11.0018 11.8987 11.0032L10.5397 8.81289C11.343 9.81104 12.836 9.86858 13.7108 8.93839C14.0954 8.52945 14.2977 7.9952 14.2805 7.43408C14.2228 5.55301 11.9181 4.70898 10.6488 6.05864C10.0374 6.70883 9.92645 7.63329 10.2707 8.37923L8.4112 5.38223L11.1706 4.58595C12.0276 4.33867 12.4326 3.35773 11.9972 2.57751C11.681 2.01101 11.0249 1.74095 10.4016 1.92083L6.22402 3.12636C5.14086 3.43895 4.6558 4.69808 5.25055 5.6567L6.51324 7.69179C5.60302 8.25679 2.71605 10.047 2.68539 10.0683C1.96074 10.1449 1.18467 10.2905 0.340455 10.5305C0.0914548 10.6013 -0.0530452 10.8606 0.017736 11.1096C0.088486 11.3587 0.34783 11.5031 0.596736 11.4323ZM11.3317 6.70095C11.773 6.23176 12.5095 6.21048 12.9774 6.65045C13.446 7.09123 13.4687 7.82736 13.0279 8.29614C12.5871 8.76476 11.851 8.78748 11.3822 8.34664C10.9135 7.90583 10.8909 7.1697 11.3317 6.70095ZM7.55692 7.59589L6.04714 5.16248C5.78049 4.7327 5.99758 4.16748 6.48389 4.02714L10.6615 2.82161C10.8636 2.76323 11.0761 2.85083 11.1785 3.03439C11.3199 3.28773 11.1878 3.60523 10.9107 3.6852L7.55661 4.65311C7.25808 4.73926 7.12473 5.08708 7.28827 5.35061L10.766 10.9557C8.57886 10.7721 6.80177 10.1125 4.55158 10.0123L7.40577 8.24129C7.62573 8.10483 7.69342 7.81586 7.55692 7.59589Z" fill="#696969"/>
<path d="M15.4125 12.7153C8.95492 14.401 6.68895 10.9133 0.340455 12.718C0.0914548 12.7888 -0.0530452 13.048 0.017736 13.2971C0.0885173 13.5461 0.347861 13.6906 0.596799 13.6198C6.67733 11.8913 8.89983 15.3843 15.6493 13.6224C15.8998 13.5571 16.0498 13.301 15.9845 13.0505C15.9191 12.8 15.663 12.65 15.4125 12.7153Z" fill="#696969"/>
</g>
<defs>
<clipPath id="clip0_1987_18111">
<rect width="16" height="16" fill="white"/>
</clipPath>
</defs>
</svg>
