<svg width="16" height="16" viewBox="0 0 16 16" fill="none" xmlns="http://www.w3.org/2000/svg">
<path d="M5 6.2805V7.25C5.00392 7.28822 5.01274 7.32578 5.02625 7.36175L5.5 8.309V15.5H7V8.309L7.475 7.36175C7.48808 7.32572 7.49648 7.28817 7.5 7.25V6.2805L7.7425 5.31075C7.74636 5.29069 7.74887 5.2704 7.75 5.25V2.75C7.75 2.6837 7.72366 2.62011 7.67678 2.57322C7.62989 2.52634 7.5663 2.5 7.5 2.5H7.25V1H6.5V0.75C6.5 0.683696 6.47366 0.620107 6.42678 0.573223C6.37989 0.526339 6.3163 0.5 6.25 0.5C6.1837 0.5 6.12011 0.526339 6.07322 0.573223C6.02634 0.620107 6 0.683696 6 0.75V1H5.25V2.5H5C4.9337 2.5 4.87011 2.52634 4.82322 2.57322C4.77634 2.62011 4.75 2.6837 4.75 2.75V5.25C4.75113 5.2704 4.75364 5.29069 4.7575 5.31075L5 6.2805ZM6.5 15H6V9.5H6.5V15ZM6.5 9H6V8.5H6.5V9ZM6.5955 8H5.9045L5.6545 7.5H6.8455L6.5955 8ZM7 7H5.5V6.5H7V7ZM7.05475 6H5.44525L5.32025 5.5H7.17975L7.05475 6ZM5.75 1.5H6.75V2.5H5.75V1.5ZM5.25 3H7.25V5H5.25V3Z" fill="#696969"/>
<path d="M6.75 4H5.75V4.5H6.75V4Z" fill="#696969"/>
<path d="M8.5 6.2805V7.25C8.50352 7.28817 8.51192 7.32572 8.525 7.36175L9 8.309V15.5H10.5V8.309L10.975 7.36175C10.9881 7.32572 10.9965 7.28817 11 7.25V6.2805L11.2425 5.31075C11.2464 5.29069 11.2489 5.2704 11.25 5.25V2.75C11.25 2.6837 11.2237 2.62011 11.1768 2.57322C11.1299 2.52634 11.0663 2.5 11 2.5H10.75V1H10V0.75C10 0.683696 9.97366 0.620107 9.92678 0.573223C9.87989 0.526339 9.8163 0.5 9.75 0.5C9.6837 0.5 9.62011 0.526339 9.57322 0.573223C9.52634 0.620107 9.5 0.683696 9.5 0.75V1H8.75V2.5H8.5C8.4337 2.5 8.37011 2.52634 8.32322 2.57322C8.27634 2.62011 8.25 2.6837 8.25 2.75V5.25C8.25113 5.2704 8.25364 5.29069 8.2575 5.31075L8.5 6.2805ZM10 15H9.5V9.5H10V15ZM10 9H9.5V8.5H10V9ZM10.0955 8H9.4045L9.1545 7.5H10.3455L10.0955 8ZM10.5 7H9V6.5H10.5V7ZM10.5548 6H8.94525L8.82025 5.5H10.6798L10.5548 6ZM9.25 1.5H10.25V2.5H9.25V1.5ZM8.75 3H10.75V5H8.75V3Z" fill="#696969"/>
<path d="M10.25 4H9.25V4.5H10.25V4Z" fill="#696969"/>
</svg>
