<svg width="16" height="16" viewBox="0 0 16 16" fill="none" xmlns="http://www.w3.org/2000/svg">
<g clip-path="url(#clip0_1987_18135)">
<path d="M5.79102 12.4059C5.66155 12.4059 5.55664 12.5109 5.55664 12.6403V13.6505C5.55664 13.7799 5.66155 13.8849 5.79102 13.8849H10.2105C10.3399 13.8849 10.4448 13.7799 10.4448 13.6505V12.6403C10.4448 12.5109 10.3399 12.4059 10.2105 12.4059H5.79102ZM9.97608 13.4161H6.02539V12.8747H9.97608V13.4161Z" fill="#696969"/>
<path d="M9.4978 3.54125V2.75978C9.4978 2.63034 9.39289 2.52541 9.26342 2.52541H8.7402V1.47891H10.021C10.4288 1.47891 10.7605 1.14719 10.7605 0.739438C10.7605 0.331688 10.4288 0 10.021 0H6.00855C5.81099 0 5.62527 0.0769063 5.48568 0.216594L4.67083 1.03147C4.52955 1.17272 4.4518 1.3605 4.4518 1.56022C4.4518 1.75994 4.52955 1.94775 4.6708 2.08897C4.81205 2.23019 4.9998 2.30797 5.19955 2.30797C5.3993 2.30797 5.58705 2.23019 5.72833 2.08897L6.33836 1.47891H7.26127V2.52541H6.73805C6.60858 2.52541 6.50368 2.63034 6.50368 2.75978V3.54125C5.09668 3.62741 3.97827 4.79887 3.97827 6.22719V12.5956C3.97827 12.7251 4.08318 12.83 4.21265 12.83C4.34212 12.83 4.44702 12.7251 4.44702 12.5956V6.22719C4.44702 5.00153 5.44418 4.00437 6.66983 4.00437H9.3317C10.5574 4.00437 11.5545 5.00153 11.5545 6.22719V7.13906C11.5545 7.2685 11.6594 7.37344 11.7889 7.37344C11.9184 7.37344 12.0233 7.2685 12.0233 7.13906V6.22719C12.0232 4.79891 10.9048 3.62744 9.4978 3.54125ZM6.24127 1.01016C6.17911 1.01016 6.11952 1.03484 6.07552 1.07881L5.39686 1.7575C5.34415 1.81022 5.27405 1.83922 5.19955 1.83922C5.12505 1.83922 5.05496 1.81019 5.00227 1.75747C4.94958 1.70478 4.92058 1.63472 4.92058 1.56019C4.92058 1.48566 4.94961 1.41559 5.0023 1.36291L5.81718 0.548C5.8683 0.496906 5.93627 0.46875 6.00858 0.46875H10.0211C10.1704 0.46875 10.2918 0.590187 10.2918 0.739469C10.2918 0.88875 10.1704 1.01019 10.0211 1.01019H6.24127V1.01016ZM7.73002 1.47891H8.27145V2.52541H7.73002V1.47891ZM9.02905 2.99416V3.53562H6.97243V2.99416H9.02905Z" fill="#696969"/>
<path d="M11.7889 8.00153C11.6594 8.00153 11.5545 8.10646 11.5545 8.2359V14.8187C11.5545 15.2116 11.2348 15.5312 10.8417 15.5312H5.15983C4.7668 15.5312 4.44702 15.2116 4.44702 14.8187V13.6925C4.44702 13.563 4.34211 13.4581 4.21265 13.4581C4.08318 13.4581 3.97827 13.563 3.97827 13.6925V14.8187C3.97827 15.4701 4.5083 16 5.15983 16H10.8417C11.4932 16 12.0233 15.4701 12.0233 14.8187V8.2359C12.0233 8.10646 11.9183 8.00153 11.7889 8.00153Z" fill="#696969"/>
<path d="M8.00093 6.4397C6.54881 6.4397 5.36743 7.6211 5.36743 9.0732C5.36743 10.5253 6.54884 11.7067 8.00093 11.7067C9.45303 11.7067 10.6344 10.5253 10.6344 9.0732C10.6344 7.62107 9.45306 6.4397 8.00093 6.4397ZM8.00093 11.238C6.80728 11.238 5.83618 10.2669 5.83618 9.07323C5.83618 7.87957 6.80728 6.90848 8.00093 6.90848C9.19459 6.90848 10.1657 7.8796 10.1657 9.07323C10.1657 10.2669 9.19459 11.238 8.00093 11.238Z" fill="#696969"/>
<path d="M8.01626 7.51312C7.95126 7.51312 7.88917 7.54012 7.84482 7.58769C7.66564 7.7799 6.77173 8.77015 6.77173 9.38903C6.77173 10.0752 7.33001 10.6336 8.01626 10.6336C8.70251 10.6336 9.26079 10.0752 9.26079 9.38903C9.26079 8.77015 8.36692 7.7799 8.1877 7.58769C8.14335 7.54015 8.08126 7.51312 8.01626 7.51312ZM8.01626 10.1648C7.58851 10.1648 7.24048 9.81678 7.24048 9.38903C7.24048 9.11306 7.65107 8.527 8.01626 8.09984C8.38148 8.527 8.79204 9.11306 8.79204 9.38903C8.79204 9.81681 8.44401 10.1648 8.01626 10.1648Z" fill="#696969"/>
</g>
<defs>
<clipPath id="clip0_1987_18135">
<rect width="16" height="16" fill="white"/>
</clipPath>
</defs>
</svg>
