<svg width="16" height="16" viewBox="0 0 16 16" fill="none" xmlns="http://www.w3.org/2000/svg">
<g clip-path="url(#clip0_1987_18143)">
<path d="M7.99719 11.3219C7.23247 11.3219 6.61035 11.942 6.61035 12.7038C6.61035 13.4659 7.23247 14.0862 7.99719 14.0862C8.76216 14.0862 9.38428 13.4659 9.38428 12.7038C9.38428 11.942 8.76203 11.3219 7.99719 11.3219Z" fill="#696969"/>
<path d="M11.3807 9.43907C10.4778 8.53668 9.27592 8.03949 7.99697 8.03949C6.72295 8.03949 5.52439 8.5334 4.62175 9.43011C4.25719 9.79291 4.25655 10.384 4.62024 10.7474C4.7969 10.9243 5.03212 11.0215 5.28249 11.0215C5.53171 11.0215 5.76605 10.9248 5.94246 10.7494C6.49177 10.2035 7.22141 9.90282 7.99697 9.90282C8.77544 9.90282 9.5071 10.2054 10.0568 10.7546C10.2335 10.931 10.4685 11.0284 10.7187 11.0284C10.9681 11.0284 11.2023 10.9318 11.3789 10.7564C11.744 10.3935 11.7446 9.80275 11.3807 9.43907Z" fill="#696969"/>
<path d="M15.7269 5.10666C13.6627 3.04752 10.9171 1.91382 7.99658 1.91382C5.07993 1.91382 2.33718 3.04487 0.273581 5.09912C-0.0909834 5.46192 -0.0912358 6.053 0.273077 6.41643C0.449617 6.59246 0.684458 6.68925 0.934316 6.68925C1.18405 6.68925 1.41864 6.59284 1.59518 6.41693C3.30569 4.71437 5.57902 3.77652 7.99658 3.77652C10.4177 3.77652 12.6933 4.71626 14.4042 6.42337C14.5807 6.59953 14.8159 6.6967 15.0657 6.6967C15.3153 6.6967 15.5498 6.59978 15.7263 6.42413C16.091 6.06104 16.0913 5.46975 15.7269 5.10666Z" fill="#696969"/>
<path d="M13.4991 7.32722C12.0297 5.86126 10.0758 5.05402 7.99719 5.05402C5.92236 5.05402 3.97133 5.85873 2.50322 7.31952C2.32643 7.4953 2.22914 7.72913 2.22876 7.97811C2.22876 8.22683 2.32567 8.46091 2.50221 8.63695C2.67876 8.81311 2.91372 8.91028 3.16358 8.91028C3.41306 8.91028 3.64765 8.81336 3.82444 8.63796C4.93971 7.52836 6.4217 6.9171 7.99719 6.9171C9.57596 6.9171 11.06 7.53051 12.176 8.64389C12.3528 8.82031 12.5876 8.91747 12.8376 8.91747C13.0872 8.91747 13.3219 8.82056 13.4982 8.6449C13.6748 8.46912 13.7723 8.23528 13.7724 7.98631C13.7727 7.73734 13.6755 7.5035 13.4991 7.32722Z" fill="#696969"/>
</g>
<defs>
<clipPath id="clip0_1987_18143">
<rect width="16" height="16" fill="white"/>
</clipPath>
</defs>
</svg>
