<svg width="16" height="16" viewBox="0 0 16 16" fill="none" xmlns="http://www.w3.org/2000/svg">
<g clip-path="url(#clip0_1987_18124)">
<path d="M15.5312 13.1875H14.125V8.4375H14.5938C14.8526 8.4375 15.0625 8.22762 15.0625 7.96875C15.0625 7.53575 15.0625 3.41772 15.0625 2.73187C15.6081 2.53837 16 2.01734 16 1.40625C16 0.630844 15.3692 0 14.5938 0H1.40625C0.630844 0 0 0.630844 0 1.40625C0 2.01734 0.391906 2.53837 0.9375 2.73187C0.9375 2.99656 0.9375 7.72394 0.9375 7.96875C0.9375 8.22762 1.14737 8.4375 1.40625 8.4375H1.875V13.1875H0.46875C0.209875 13.1875 0 13.3974 0 13.6562V15.5312C0 15.7901 0.209875 16 0.46875 16H15.5312C15.7901 16 16 15.7901 16 15.5312V13.6562C16 13.3974 15.7901 13.1875 15.5312 13.1875ZM14.125 7.5C13.4018 7.5 2.84025 7.5 2.34375 7.5H1.875V6.5625H14.125V7.5ZM10.3438 9.45562C9.79816 9.64912 9.40625 10.1702 9.40625 10.7812C9.40625 11.5567 10.0371 12.1875 10.8125 12.1875C11.5879 12.1875 12.2188 11.5567 12.2188 10.7812C12.2188 10.1702 11.8268 9.64912 11.2812 9.45562V8.4375H13.1875V13.1875H8.46875V8.4375H10.3438V9.45562ZM10.8125 10.3125C11.071 10.3125 11.2812 10.5228 11.2812 10.7812C11.2812 11.0397 11.071 11.25 10.8125 11.25C10.554 11.25 10.3438 11.0397 10.3438 10.7812C10.3438 10.5228 10.554 10.3125 10.8125 10.3125ZM7.53125 8.4375V13.1875H2.8125V8.4375H7.53125ZM14.125 5.625H1.875V4.6875H14.125V5.625ZM14.125 3.75H1.875V2.8125H14.125V3.75ZM1.40625 1.875C1.14778 1.875 0.9375 1.66472 0.9375 1.40625C0.9375 1.14778 1.14778 0.9375 1.40625 0.9375H14.5938C14.8522 0.9375 15.0625 1.14778 15.0625 1.40625C15.0625 1.66472 14.8522 1.875 14.5938 1.875H1.40625ZM15.0625 15.0625H0.9375V14.125C2.18869 14.125 13.2537 14.125 15.0625 14.125V15.0625Z" fill="#696969"/>
</g>
<defs>
<clipPath id="clip0_1987_18124">
<rect width="16" height="16" fill="white"/>
</clipPath>
</defs>
</svg>
