<svg width="20" height="20" viewBox="0 0 20 20" fill="none" xmlns="http://www.w3.org/2000/svg">
<g clip-path="url(#clip0_1987_18128)">
<path d="M19.7647 4.79366C19.5947 4.60935 19.3527 4.50366 19.101 4.50366H18.834C18.1336 4.50366 17.5593 5.02602 17.4981 5.71873L17.2092 8.98753C17.1836 9.27721 16.9434 9.49569 16.6504 9.49569H14.1494C13.348 9.49569 12.696 10.1431 12.696 10.9388V11.0822C12.696 11.5629 13.0899 11.954 13.5741 11.954H14.1101L13.5823 13.6658C13.5819 13.6671 13.5815 13.6683 13.5811 13.6696L13.1776 14.9781C13.1302 15.1317 13.2172 15.2943 13.3719 15.3414C13.4005 15.3501 13.4294 15.3542 13.4578 15.3542C13.5832 15.3542 13.6992 15.2737 13.7378 15.1484L14.0781 14.0449H18.0965L18.4368 15.1484C18.4754 15.2737 18.5914 15.3542 18.7168 15.3542C18.7452 15.3542 18.7741 15.3501 18.8027 15.3414C18.9574 15.2943 19.0444 15.1317 18.997 14.9781L18.0393 11.8727C18.2075 11.8254 18.3699 11.7582 18.5222 11.6715C18.6626 11.5916 18.7111 11.4138 18.6306 11.2745C18.5502 11.1351 18.3711 11.0869 18.2308 11.1668C17.9947 11.3012 17.7253 11.3722 17.4519 11.3722H14.5065C14.5055 11.3722 14.5045 11.3722 14.5036 11.3722H13.5742C13.4131 11.3722 13.2821 11.2422 13.2821 11.0822V10.9388C13.2821 10.4639 13.6712 10.0775 14.1495 10.0775H16.6505C17.2495 10.0775 17.7406 9.63078 17.7929 9.03841L18.0818 5.76958C18.1163 5.37955 18.4397 5.0854 18.834 5.0854H19.1011C19.1902 5.0854 19.2725 5.12136 19.3327 5.18663C19.3929 5.25191 19.4218 5.33642 19.414 5.42462L19.014 9.9513C19.0041 10.0629 18.9822 10.1734 18.9489 10.2796C18.9008 10.433 18.987 10.5961 19.1415 10.6438C19.2962 10.6916 19.4602 10.6059 19.5084 10.4526C19.5541 10.3067 19.5842 10.1552 19.5977 10.0022L19.9978 5.47547C20.0197 5.22651 19.9347 4.97797 19.7647 4.79366ZM14.7228 11.954H17.4515L17.9169 13.4632H14.2574L14.7228 11.954Z" fill="#696969"/>
<path d="M5.85237 9.49667H3.35136C3.05843 9.49667 2.81827 9.27823 2.79265 8.9885L2.50374 5.71971C2.44253 5.027 1.86824 4.50464 1.16789 4.50464H0.900816C0.649098 4.50464 0.407185 4.61033 0.237146 4.79464C0.067107 4.97895 -0.0178147 5.22748 0.0041384 5.47652L0.404216 10.0032C0.451442 10.5374 0.696754 11.0311 1.095 11.3933C1.34519 11.6209 1.64226 11.7842 1.96242 11.8741L1.00484 14.9791C0.957457 15.1327 1.04449 15.2954 1.19918 15.3424C1.22777 15.3511 1.25668 15.3552 1.28507 15.3552C1.41042 15.3552 1.52648 15.2747 1.56507 15.1494L1.90538 14.046H5.92374L6.26405 15.1494C6.30264 15.2747 6.41866 15.3552 6.54405 15.3552C6.57248 15.3552 6.60139 15.3511 6.62995 15.3424C6.78463 15.2954 6.87166 15.1327 6.82428 14.9791L6.42077 13.6706C6.42038 13.6694 6.41999 13.6681 6.4196 13.6668L5.89171 11.955H6.42776C6.91194 11.955 7.30576 11.5639 7.30576 11.0832V10.9398C7.30576 10.144 6.65377 9.49667 5.85237 9.49667ZM2.0848 13.4641L2.55019 11.955H5.27889L5.74428 13.4641H2.0848ZM6.71983 11.0831C6.71983 11.2431 6.58881 11.3732 6.42776 11.3732H5.49854C5.49737 11.3732 5.49624 11.3732 5.49507 11.3732H2.55003C2.48738 11.3732 2.42574 11.3692 2.36503 11.3622C2.36499 11.3622 2.36492 11.3622 2.36484 11.3622C1.63187 11.2781 1.05398 10.7003 0.987886 9.95228L0.587809 5.42564C0.579997 5.3374 0.608903 5.25289 0.669137 5.18761C0.729332 5.12233 0.811598 5.08638 0.900777 5.08638H1.16785C1.56218 5.08638 1.88554 5.38049 1.91999 5.77055L2.2089 9.03935V9.03931C2.26124 9.63168 2.75238 10.0784 3.35132 10.0784H5.85233C6.33065 10.0784 6.71979 10.4648 6.71979 10.9397V11.0831H6.71983Z" fill="#696969"/>
<path d="M12.2249 14.3946C12.104 13.9332 11.6842 13.6109 11.204 13.6109H11.0227V8.31541H14.6302C14.8381 8.31541 15.0325 8.22369 15.1639 8.06377C15.2952 7.90382 15.3466 7.69617 15.3047 7.49402C15.1787 6.88571 14.6333 6.44421 14.0079 6.44421H7.91693C7.7551 6.44421 7.62396 6.57446 7.62396 6.7351C7.62396 6.89575 7.7551 7.02599 7.91693 7.02599H14.0079C14.3565 7.02599 14.6605 7.27213 14.7307 7.61119C14.7393 7.65246 14.7213 7.68213 14.7098 7.69617C14.6982 7.71017 14.6726 7.73367 14.6302 7.73367H5.37034C5.32795 7.73367 5.30233 7.71017 5.2908 7.69617C5.27932 7.68217 5.26127 7.65246 5.26983 7.61123C5.34006 7.27213 5.64405 7.02599 5.99272 7.02599H6.54287C6.70471 7.02599 6.83584 6.89575 6.83584 6.7351C6.83584 6.57446 6.70471 6.44421 6.54287 6.44421H5.99272C5.36725 6.44421 4.82186 6.88571 4.69588 7.49406C4.65405 7.69621 4.70538 7.90386 4.8367 8.06377C4.96803 8.22369 5.16252 8.31541 5.37034 8.31541H8.97795V13.611H8.79662C8.31642 13.611 7.89666 13.9332 7.77576 14.3946L7.70697 14.6571C7.66295 14.8252 7.69904 15.0004 7.80603 15.1379C7.91307 15.2753 8.07478 15.3541 8.24971 15.3541H11.7509C11.9258 15.3541 12.0875 15.2753 12.1945 15.1379C12.3015 15.0005 12.3376 14.8252 12.2936 14.6571L12.2249 14.3946ZM9.56388 8.31541H10.4368V13.611H9.56388V8.31541ZM8.28221 14.7723L8.34283 14.5411C8.39654 14.336 8.58314 14.1928 8.79658 14.1928H11.204C11.4174 14.1928 11.604 14.336 11.6577 14.5411L11.7183 14.7723H8.28221Z" fill="#696969"/>
</g>
<defs>
<clipPath id="clip0_1987_18128">
<rect width="20" height="19.8582" fill="white"/>
</clipPath>
</defs>
</svg>
