<svg width="117" height="36" viewBox="0 0 117 36" fill="none" xmlns="http://www.w3.org/2000/svg">
<path d="M50.4566 10.771H53.2388V24.0004H50.4566V18.5621H44.7901V24.0004H42.0078V10.771H44.7901V16.1726H50.4566V10.771Z" fill="white"/>
<path d="M60.7509 24.1835C59.7369 24.1835 58.8373 23.9912 58.0521 23.6067C57.2669 23.2222 56.6486 22.6576 56.1973 21.913C55.7521 21.1683 55.5296 20.2925 55.5296 19.2854C55.5296 17.7778 56.0118 16.5876 56.9763 15.7148C57.9408 14.842 59.199 14.4056 60.7509 14.4056C62.309 14.4056 63.5703 14.842 64.5348 15.7148C65.4993 16.5876 65.9816 17.7778 65.9816 19.2854C65.9816 20.7991 65.4993 21.9954 64.5348 22.8743C63.5703 23.7471 62.309 24.1835 60.7509 24.1835ZM60.7231 22.0869C61.5021 22.0869 62.1297 21.8306 62.6058 21.3179C63.088 20.8052 63.3291 20.1277 63.3291 19.2854C63.3291 18.4431 63.088 17.7656 62.6058 17.2529C62.1297 16.7402 61.5021 16.4839 60.7231 16.4839C59.975 16.4839 59.3629 16.7433 58.8868 17.2621C58.4169 17.7748 58.182 18.4492 58.182 19.2854C58.182 20.1216 58.4169 20.7991 58.8868 21.3179C59.3629 21.8306 59.975 22.0869 60.7231 22.0869Z" fill="white"/>
<path d="M74.2912 14.5887H76.9622V24.0004H74.4303L74.3654 22.8651C73.6606 23.744 72.6497 24.1835 71.3328 24.1835C70.1889 24.1835 69.311 23.9027 68.6989 23.3412C68.0868 22.7736 67.7807 21.9679 67.7807 20.9242V14.5887H70.461V20.3566C70.461 20.9425 70.6186 21.3728 70.934 21.6475C71.2555 21.9221 71.6697 22.0594 72.1767 22.0594C72.795 22.0594 73.2989 21.8824 73.6884 21.5284C74.0841 21.1683 74.285 20.5854 74.2912 19.7798V14.5887Z" fill="white"/>
<path d="M86.6908 14.5887L82.4989 21.9679H86.5609V24.0004H78.7057L82.8791 16.6212H79.0303V14.5887H86.6908Z" fill="white"/>
<path d="M89.8904 13.1788C89.4638 13.1788 89.099 13.0323 88.796 12.7394C88.4931 12.4403 88.3416 12.0802 88.3416 11.6591C88.3416 11.244 88.4931 10.89 88.796 10.597C89.1052 10.298 89.4699 10.1484 89.8904 10.1484C90.3046 10.1484 90.6632 10.298 90.9662 10.597C91.2691 10.89 91.4206 11.244 91.4206 11.6591C91.4206 12.0802 91.2691 12.4403 90.9662 12.7394C90.6632 13.0323 90.3046 13.1788 89.8904 13.1788ZM88.5271 24.0004V14.5887H91.2166V24.0004H88.5271Z" fill="white"/>
<path d="M99.6097 14.4056C100.754 14.4056 101.631 14.6895 102.244 15.2571C102.856 15.8186 103.162 16.6212 103.162 17.6649V24.0004H100.481V18.2325C100.481 17.6405 100.321 17.2072 99.9992 16.9325C99.6839 16.6578 99.2758 16.5205 98.775 16.5205C98.4844 16.5205 98.2186 16.5602 97.9775 16.6395C97.7363 16.7189 97.5137 16.844 97.3097 17.0149C97.1057 17.1797 96.9449 17.4147 96.8275 17.7198C96.7162 18.025 96.6574 18.3882 96.6512 18.8093V24.0004H93.9803V14.5887H96.6512V15.6324C97.3561 14.8146 98.3422 14.4056 99.6097 14.4056Z" fill="white"/>
<path d="M112.325 14.5887H114.866V23.2954C114.866 24.1926 114.745 24.9739 114.504 25.6392C114.269 26.3044 113.926 26.8385 113.475 27.2413C113.023 27.6503 112.495 27.9524 111.889 28.1477C111.283 28.343 110.59 28.4407 109.811 28.4407C107.295 28.4407 105.656 27.4672 104.896 25.5201L107.113 24.5863C107.385 25.2028 107.728 25.6575 108.142 25.9504C108.556 26.2434 109.079 26.3899 109.709 26.3899C111.36 26.3899 112.185 25.4225 112.185 23.4877V22.389C111.901 22.7736 111.499 23.0848 110.98 23.3229C110.467 23.5548 109.904 23.6708 109.292 23.6708C108.705 23.6708 108.145 23.5609 107.613 23.3412C107.088 23.1154 106.627 22.8041 106.231 22.4073C105.836 22.0045 105.52 21.5101 105.286 20.9242C105.057 20.3383 104.942 19.7035 104.942 19.0199C104.942 18.3302 105.057 17.6954 105.286 17.1156C105.52 16.5297 105.836 16.0414 106.231 15.6508C106.633 15.2601 107.097 14.955 107.623 14.7352C108.154 14.5155 108.717 14.4056 109.31 14.4056C109.966 14.4056 110.553 14.5369 111.073 14.7993C111.598 15.0557 111.994 15.4005 112.26 15.8339L112.325 14.5887ZM108.225 20.8143C108.701 21.2965 109.286 21.5376 109.978 21.5376C110.671 21.5376 111.255 21.2935 111.731 20.8052C112.207 20.3169 112.445 19.7218 112.445 19.0199C112.445 18.3119 112.207 17.7137 111.731 17.2255C111.261 16.7372 110.677 16.493 109.978 16.493C109.273 16.493 108.686 16.7341 108.216 17.2163C107.752 17.6924 107.521 18.2936 107.521 19.0199C107.521 19.734 107.756 20.3322 108.225 20.8143Z" fill="white"/>
<path d="M7.32205 17.7038V10.4231L15.1946 5.96333C17.8217 7.44993 20.443 8.93653 23.0672 10.4231V21.6982H8.94887H1.63392C1.36661 21.1001 1.09356 20.5106 0.872243 19.8984C-0.036018 17.385 -0.234341 14.6827 0.274401 12.0846C0.826255 9.25247 2.22026 6.55289 4.45068 4.36671C7.41977 1.45557 11.3086 0 15.1946 0C19.0863 0 22.9752 1.45557 25.9385 4.36671C28.9047 7.28068 30.3879 11.0973 30.3879 14.9111C30.3879 18.7278 28.9047 22.5473 25.9385 25.4556L15.1946 36L4.45068 25.4584C3.99655 25.0127 3.56541 24.5331 3.17164 24.0339H6.35918L15.1946 32.708L24.2628 23.8082C26.7634 21.354 28.0166 18.1298 28.0166 14.9111C28.0166 11.6925 26.7634 8.47109 24.2628 6.0141C21.7594 3.5543 18.4741 2.32722 15.1946 2.32722C11.9151 2.32722 8.6327 3.55712 6.12924 6.01128C4.24373 7.86178 3.07104 10.1354 2.60541 12.5162C2.15703 14.7955 2.35823 17.1678 3.20038 19.3625H20.693V11.7602C18.8564 10.7193 17.0255 9.68124 15.1946 8.64316L9.69905 11.7602V17.7094H7.32205V17.7038Z" fill="white"/>
</svg>
