<svg width="10" height="6" viewBox="0 0 10 6" fill="none" xmlns="http://www.w3.org/2000/svg">
<path d="M0.159839 5.45946L0.487403 5.7893C0.590493 5.89231 0.727648 5.94906 0.874234 5.94906C1.02074 5.94906 1.15806 5.89231 1.26115 5.7893L4.99776 2.05252L8.73869 5.79345C8.84162 5.89646 8.97893 5.95312 9.12544 5.95312C9.27195 5.95312 9.40934 5.89646 9.51235 5.79345L9.84 5.46564C10.0533 5.25247 10.0533 4.90523 9.84 4.69206L5.38598 0.222022C5.28305 0.119094 5.1459 0.0465723 4.99809 0.0465722L4.99638 0.0465722C4.8498 0.0465722 4.71264 0.119175 4.60971 0.222022L0.159839 4.67994C0.0567485 4.78287 0.000163168 4.92417 7.71459e-08 5.07068C6.43309e-08 5.21726 0.0567484 5.35662 0.159839 5.45946Z" fill="white"/>
</svg>
